# xmcd
#
# Track frame offsets: 
#        187
#        14322
#        31375
#        51985
#        65027
#        77605
#        90820
#        106930
#        125325
#        140317
#        158412
#
# Disc length: 2311 seconds
#
# Revision: 2
# Processed by: cddbd v1.4PL0 Copyright (c) Steve Scherf et al.
# Submitted via: ExactAudioCopy v0.90a11
#
DISCID=7d09050b
DTITLE=Sawyer Brown - The Boys Are Back
DYEAR=1900
DGENRE=
TTITLE0=Puttin' The Dark Back Into The Night
TTITLE1=Rosie Knows
TTITLE2=I Did It For Love
TTITLE3=The Race Is On
TTITLE4=Hey, Hey
TTITLE5=Good While It Lasted
TTITLE6=Locomotive
TTITLE7=The Heartland
TTITLE8=I'm Gonna Miss You After All
TTITLE9=Gettin' Tough (Good Ol' Boy)
TTITLE10=Passin' Train
EXTD=
EXTT0=
EXTT1=
EXTT2=
EXTT3=
EXTT4=
EXTT5=
EXTT6=
EXTT7=
EXTT8=
EXTT9=
EXTT10=
PLAYORDER=
